<svg width="16" height="16" viewBox="0 0 16 16" fill="none" xmlns="http://www.w3.org/2000/svg">
<path d="M12.419 5.74418V4.79063C12.419 2.73097 11.9232 0 7.6284 0C3.33361 0 2.83776 2.73097 2.83776 4.79063V5.74418C0.701812 6.01118 0 7.09441 0 9.75672V11.1756C0 14.3032 0.95355 15.2568 4.08119 15.2568H11.1756C14.3032 15.2568 15.2568 14.3032 15.2568 11.1756V9.75672C15.2568 7.09441 14.555 6.01118 12.419 5.74418ZM7.6284 12.7699C6.35445 12.7699 5.32462 11.7325 5.32462 10.4662C5.32462 9.19222 6.36208 8.16238 7.6284 8.16238C8.89471 8.16238 9.93217 9.19985 9.93217 10.4662C9.93217 11.7401 8.90234 12.7699 7.6284 12.7699ZM4.08119 5.67553C4.02016 5.67553 3.96677 5.67553 3.90574 5.67553V4.79063C3.90574 2.55551 4.5389 1.06798 7.6284 1.06798C10.7179 1.06798 11.3511 2.55551 11.3511 4.79063V5.68316C11.29 5.68316 11.2366 5.68316 11.1756 5.68316H4.08119V5.67553Z" fill="#2690EA"/>
</svg>
